<svg xmlns="http://www.w3.org/2000/svg" xmlns:xlink="http://www.w3.org/1999/xlink" width="44" height="80" viewBox="0 0 44 80">
    <defs>
        <path id="a" d="M9.037 9.312H.029V.292h9.008z"/>
    </defs>
    <g fill="none" fill-rule="evenodd">
        <path fill="#D8D8D8" d="M39.497 35.856a4.507 4.507 0 0 0-4.504 4.51c0 2.49 2.017 4.51 4.504 4.51A4.507 4.507 0 0 0 44 40.366c0-2.49-2.016-4.51-4.503-4.51"/>
        <path fill="#DCE0DF" d="M22.379 27.733a4.508 4.508 0 0 1-4.504-4.51c0-2.491 2.016-4.51 4.504-4.51a4.507 4.507 0 0 1 4.503 4.51c0 2.49-2.018 4.51-4.503 4.51"/>
        <path fill="#D8D8D8" d="M4.516 18.713a4.507 4.507 0 0 0-4.503 4.51c0 2.49 2.016 4.51 4.503 4.51a4.507 4.507 0 0 0 4.503-4.51c0-2.49-2.016-4.51-4.503-4.51M4.516.321a4.506 4.506 0 0 0-4.503 4.51c0 2.49 2.017 4.509 4.503 4.509A4.506 4.506 0 0 0 9.02 4.83C9.02 2.34 7.003.322 4.516.322M22.138 53.239a4.507 4.507 0 0 0-4.503 4.51c0 2.491 2.016 4.51 4.503 4.51a4.507 4.507 0 0 0 4.504-4.51c0-2.49-2.016-4.51-4.504-4.51M4.516 53.239a4.507 4.507 0 0 0-4.503 4.51c0 2.491 2.016 4.51 4.503 4.51a4.507 4.507 0 0 0 4.504-4.51c0-2.49-2.016-4.51-4.504-4.51"/>
        <g transform="matrix(-1 0 0 1 9.049 69.89)">
            <mask id="b" fill="#fff">
                <use xlink:href="#a"/>
            </mask>
            <path fill="#D8D8D8" d="M4.533.292a4.507 4.507 0 0 1 4.504 4.51c0 2.491-2.017 4.51-4.504 4.51a4.507 4.507 0 0 1-4.504-4.51A4.507 4.507 0 0 1 4.533.292" mask="url(#b)"/>
        </g>
        <path fill="#D8D8D8" d="M22.006 35.856a4.507 4.507 0 0 0-4.503 4.51c0 2.49 2.016 4.51 4.503 4.51a4.507 4.507 0 0 0 4.503-4.51c0-2.49-2.016-4.51-4.503-4.51M4.516 35.856a4.507 4.507 0 0 0-4.503 4.51c0 2.49 2.016 4.51 4.503 4.51a4.507 4.507 0 0 0 4.503-4.51c0-2.49-2.016-4.51-4.503-4.51"/>
    </g>
</svg>
